<mxfile host="app.diagrams.net" modified="2021-06-24T07:26:49.615Z" agent="5.0 (Windows NT 10.0; Win64; x64) AppleWebKit/537.36 (KHTML, like Gecko) Chrome/91.0.4472.114 Safari/537.36" etag="xkmgBHERyucIzW4lzKIJ" version="14.8.0" type="github">
  <diagram id="6Px6BZZu-yz_-wVxd4x5" name="Page-1">
    <mxGraphModel dx="1947" dy="627" grid="1" gridSize="10" guides="1" tooltips="1" connect="1" arrows="1" fold="1" page="1" pageScale="1" pageWidth="850" pageHeight="1100" math="0" shadow="0">
      <root>
        <mxCell id="0" />
        <mxCell id="1" parent="0" />
        <mxCell id="YDBuv8ddOCUkQB5ImE2G-1" value="&lt;font color=&quot;#ffffff&quot; style=&quot;font-size: 16px&quot;&gt;&lt;br&gt;&lt;br&gt;USER&lt;/font&gt;" style="shape=actor;whiteSpace=wrap;html=1;fontStyle=1;strokeColor=#6c8ebf;strokeWidth=3;fillColor=#7EA6E0;" parent="1" vertex="1">
          <mxGeometry x="-420" y="320" width="70" height="90" as="geometry" />
        </mxCell>
        <mxCell id="YDBuv8ddOCUkQB5ImE2G-2" value="" style="endArrow=classic;html=1;fontStyle=1;exitX=0.9;exitY=0.5;exitDx=0;exitDy=0;exitPerimeter=0;" parent="1" source="YDBuv8ddOCUkQB5ImE2G-1" edge="1">
          <mxGeometry x="-440" y="220" width="50" height="50" as="geometry">
            <mxPoint x="-330" y="359" as="sourcePoint" />
            <mxPoint x="-180" y="365" as="targetPoint" />
          </mxGeometry>
        </mxCell>
        <mxCell id="YDBuv8ddOCUkQB5ImE2G-3" value="&lt;span style=&quot;font-size: 16px&quot;&gt;&lt;font style=&quot;font-size: 16px&quot;&gt;&lt;br&gt;Flask Server&lt;/font&gt;&lt;/span&gt;" style="strokeWidth=3;html=1;shape=mxgraph.flowchart.database;whiteSpace=wrap;fontStyle=1;fillColor=#e3c800;strokeColor=#B09500;fontColor=#000000;" parent="1" vertex="1">
          <mxGeometry x="190" y="320" width="110" height="140" as="geometry" />
        </mxCell>
        <mxCell id="YDBuv8ddOCUkQB5ImE2G-5" value="" style="swimlane;fontStyle=1;strokeColor=#314354;strokeWidth=3;fontColor=#ffffff;fillColor=#4D4D4D;" parent="1" vertex="1">
          <mxGeometry x="-180" y="270" width="280" height="250" as="geometry" />
        </mxCell>
        <mxCell id="YDBuv8ddOCUkQB5ImE2G-6" value="&lt;font style=&quot;font-size: 13px&quot;&gt;CoVShorts: COVID-19 News Summarization&lt;/font&gt;" style="text;html=1;align=center;verticalAlign=middle;resizable=0;points=[];autosize=1;strokeColor=none;fontStyle=1" parent="YDBuv8ddOCUkQB5ImE2G-5" vertex="1">
          <mxGeometry y="26" width="280" height="20" as="geometry" />
        </mxCell>
        <mxCell id="QS6g459HwWV62j3J0UH3-10" value="" style="shape=waypoint;sketch=0;fillStyle=solid;size=6;pointerEvents=1;points=[];fillColor=none;resizable=0;rotatable=0;perimeter=centerPerimeter;snapToPoint=1;strokeWidth=2;strokeColor=#FF0000;" vertex="1" parent="YDBuv8ddOCUkQB5ImE2G-5">
          <mxGeometry x="3" y="-7" width="40" height="40" as="geometry" />
        </mxCell>
        <mxCell id="QS6g459HwWV62j3J0UH3-14" value="" style="verticalLabelPosition=bottom;verticalAlign=top;html=1;shape=mxgraph.basic.rect;fillColor2=none;strokeWidth=1;size=20;indent=5;fillColor=#666666;" vertex="1" parent="YDBuv8ddOCUkQB5ImE2G-5">
          <mxGeometry y="50" width="280" height="20" as="geometry" />
        </mxCell>
        <mxCell id="QS6g459HwWV62j3J0UH3-15" value="&lt;span style=&quot;color: rgb(255 , 255 , 255)&quot;&gt;&lt;font style=&quot;font-size: 11px&quot;&gt;Input Article&amp;nbsp; &amp;nbsp; Summary&lt;/font&gt;&lt;/span&gt;" style="text;html=1;strokeColor=none;fillColor=none;align=left;verticalAlign=middle;whiteSpace=wrap;rounded=0;" vertex="1" parent="YDBuv8ddOCUkQB5ImE2G-5">
          <mxGeometry x="3" y="50" width="180" height="20" as="geometry" />
        </mxCell>
        <mxCell id="QS6g459HwWV62j3J0UH3-16" value="&lt;b&gt;&lt;font style=&quot;font-size: 10px&quot;&gt;Copy and paste the text from the News Article here:&lt;/font&gt;&lt;/b&gt;" style="text;html=1;strokeColor=none;fillColor=none;align=left;verticalAlign=middle;whiteSpace=wrap;rounded=0;" vertex="1" parent="YDBuv8ddOCUkQB5ImE2G-5">
          <mxGeometry x="9" y="71" width="250" height="20" as="geometry" />
        </mxCell>
        <mxCell id="QS6g459HwWV62j3J0UH3-19" value="Generate Summary" style="rounded=1;whiteSpace=wrap;html=1;strokeColor=#000000;strokeWidth=2;fillColor=#E6E6E6;" vertex="1" parent="YDBuv8ddOCUkQB5ImE2G-5">
          <mxGeometry x="11" y="125" width="119" height="20" as="geometry" />
        </mxCell>
        <mxCell id="YDBuv8ddOCUkQB5ImE2G-7" value="" style="endArrow=classic;html=1;exitX=1;exitY=0.75;exitDx=0;exitDy=0;fontStyle=1" parent="1" edge="1">
          <mxGeometry x="-440" y="220" width="50" height="50" as="geometry">
            <mxPoint x="100" y="369.5" as="sourcePoint" />
            <mxPoint x="190" y="370" as="targetPoint" />
          </mxGeometry>
        </mxCell>
        <mxCell id="DcRiHIBrCNJo4SaFgOtc-1" value="" style="endArrow=classic;html=1;fontStyle=1" parent="1" edge="1">
          <mxGeometry x="-440" y="220" width="50" height="50" as="geometry">
            <mxPoint x="300" y="370" as="sourcePoint" />
            <mxPoint x="390" y="369.5" as="targetPoint" />
          </mxGeometry>
        </mxCell>
        <mxCell id="DcRiHIBrCNJo4SaFgOtc-4" value="&lt;b&gt;&lt;font style=&quot;font-size: 15px&quot;&gt;COVID-19 News Article&lt;/font&gt;&lt;/b&gt;" style="text;html=1;align=center;verticalAlign=middle;resizable=0;points=[];autosize=1;strokeColor=none;" parent="1" vertex="1">
          <mxGeometry x="-364" y="337" width="180" height="20" as="geometry" />
        </mxCell>
        <mxCell id="DcRiHIBrCNJo4SaFgOtc-6" value="&lt;b&gt;&lt;font style=&quot;font-size: 15px&quot;&gt;GPU&lt;/font&gt;&lt;/b&gt;" style="rounded=0;whiteSpace=wrap;html=1;fillColor=#647687;strokeColor=#314354;fontColor=#ffffff;strokeWidth=3;" parent="1" vertex="1">
          <mxGeometry x="415" y="580" width="120" height="60" as="geometry" />
        </mxCell>
        <mxCell id="DcRiHIBrCNJo4SaFgOtc-7" value="" style="endArrow=classic;html=1;fontStyle=1;" parent="1" edge="1">
          <mxGeometry x="-440" y="220" width="50" height="50" as="geometry">
            <mxPoint x="-180" y="400" as="sourcePoint" />
            <mxPoint x="-350" y="400" as="targetPoint" />
          </mxGeometry>
        </mxCell>
        <mxCell id="DcRiHIBrCNJo4SaFgOtc-8" value="&lt;b&gt;&lt;font style=&quot;font-size: 15px&quot;&gt;Generate Summary&lt;/font&gt;&lt;/b&gt;" style="text;html=1;align=center;verticalAlign=middle;resizable=0;points=[];autosize=1;strokeColor=none;" parent="1" vertex="1">
          <mxGeometry x="-337" y="404" width="150" height="20" as="geometry" />
        </mxCell>
        <mxCell id="DcRiHIBrCNJo4SaFgOtc-13" value="" style="endArrow=classic;html=1;fontStyle=1;" parent="1" edge="1">
          <mxGeometry x="-440" y="220" width="50" height="50" as="geometry">
            <mxPoint x="190" y="400" as="sourcePoint" />
            <mxPoint x="100" y="400" as="targetPoint" />
          </mxGeometry>
        </mxCell>
        <mxCell id="DcRiHIBrCNJo4SaFgOtc-14" value="" style="endArrow=classic;html=1;fontStyle=1;" parent="1" edge="1">
          <mxGeometry x="-440" y="220" width="50" height="50" as="geometry">
            <mxPoint x="390" y="400" as="sourcePoint" />
            <mxPoint x="300" y="400" as="targetPoint" />
          </mxGeometry>
        </mxCell>
        <mxCell id="QS6g459HwWV62j3J0UH3-1" value="" style="shape=ext;double=1;rounded=1;whiteSpace=wrap;html=1;strokeColor=#CCCC00;strokeWidth=2;perimeterSpacing=0;" vertex="1" parent="1">
          <mxGeometry x="390" y="300" width="170" height="200" as="geometry" />
        </mxCell>
        <mxCell id="DcRiHIBrCNJo4SaFgOtc-5" value="" style="endArrow=none;html=1;exitX=0.5;exitY=0;exitDx=0;exitDy=0;entryX=0.5;entryY=1;entryDx=0;entryDy=0;" parent="1" edge="1" target="QS6g459HwWV62j3J0UH3-1" source="DcRiHIBrCNJo4SaFgOtc-6">
          <mxGeometry x="-440" y="220" width="50" height="50" as="geometry">
            <mxPoint x="469.78999999999996" y="550" as="sourcePoint" />
            <mxPoint x="469.5" y="480" as="targetPoint" />
            <Array as="points" />
          </mxGeometry>
        </mxCell>
        <mxCell id="DcRiHIBrCNJo4SaFgOtc-3" value="&lt;font&gt;&lt;b style=&quot;color: rgb(0 , 0 , 0) ; font-family: &amp;#34;helvetica&amp;#34; ; font-style: normal ; letter-spacing: normal ; text-align: center ; text-indent: 0px ; text-transform: none ; word-spacing: 0px ; background-color: rgb(248 , 249 , 250)&quot;&gt;&lt;font style=&quot;font-size: 16px&quot;&gt;BERT&lt;/font&gt;&lt;/b&gt;&lt;br&gt;&lt;/font&gt;" style="text;html=1;strokeColor=none;fillColor=none;align=center;verticalAlign=middle;whiteSpace=wrap;rounded=0;" parent="1" vertex="1">
          <mxGeometry x="455" y="280" width="40" height="20" as="geometry" />
        </mxCell>
        <mxCell id="QS6g459HwWV62j3J0UH3-2" value="&lt;b&gt;ENCODER&lt;/b&gt;" style="rounded=1;whiteSpace=wrap;html=1;fillColor=#cdeb8b;strokeColor=#009900;" vertex="1" parent="1">
          <mxGeometry x="419" y="320" width="120" height="25" as="geometry" />
        </mxCell>
        <mxCell id="QS6g459HwWV62j3J0UH3-3" value="&lt;b&gt;ENCODER&lt;/b&gt;" style="rounded=1;whiteSpace=wrap;html=1;fillColor=#cdeb8b;strokeColor=#009900;" vertex="1" parent="1">
          <mxGeometry x="415" y="410" width="120" height="25" as="geometry" />
        </mxCell>
        <mxCell id="QS6g459HwWV62j3J0UH3-4" value="&lt;b&gt;ENCODER&lt;/b&gt;" style="rounded=1;whiteSpace=wrap;html=1;fillColor=#cdeb8b;strokeColor=#00994D;" vertex="1" parent="1">
          <mxGeometry x="417" y="459" width="120" height="23" as="geometry" />
        </mxCell>
        <mxCell id="QS6g459HwWV62j3J0UH3-7" value="" style="shape=waypoint;sketch=0;fillStyle=solid;size=6;pointerEvents=1;points=[];fillColor=none;resizable=0;rotatable=0;perimeter=centerPerimeter;snapToPoint=1;strokeWidth=2;" vertex="1" parent="1">
          <mxGeometry x="459" y="361" width="40" height="40" as="geometry" />
        </mxCell>
        <mxCell id="QS6g459HwWV62j3J0UH3-8" value="" style="shape=waypoint;sketch=0;fillStyle=solid;size=6;pointerEvents=1;points=[];fillColor=none;resizable=0;rotatable=0;perimeter=centerPerimeter;snapToPoint=1;strokeWidth=2;" vertex="1" parent="1">
          <mxGeometry x="480" y="361" width="40" height="40" as="geometry" />
        </mxCell>
        <mxCell id="QS6g459HwWV62j3J0UH3-9" value="" style="shape=waypoint;sketch=0;fillStyle=solid;size=6;pointerEvents=1;points=[];fillColor=none;resizable=0;rotatable=0;perimeter=centerPerimeter;snapToPoint=1;strokeWidth=2;" vertex="1" parent="1">
          <mxGeometry x="439" y="361" width="40" height="40" as="geometry" />
        </mxCell>
        <mxCell id="QS6g459HwWV62j3J0UH3-11" value="" style="shape=waypoint;sketch=0;fillStyle=solid;size=6;pointerEvents=1;points=[];fillColor=none;resizable=0;rotatable=0;perimeter=centerPerimeter;snapToPoint=1;strokeWidth=2;strokeColor=#FF8000;" vertex="1" parent="1">
          <mxGeometry x="-160" y="263" width="40" height="40" as="geometry" />
        </mxCell>
        <mxCell id="QS6g459HwWV62j3J0UH3-13" value="" style="shape=waypoint;sketch=0;fillStyle=solid;size=6;pointerEvents=1;points=[];fillColor=none;resizable=0;rotatable=0;perimeter=centerPerimeter;snapToPoint=1;strokeWidth=2;strokeColor=#00CC00;" vertex="1" parent="1">
          <mxGeometry x="-143" y="263" width="40" height="40" as="geometry" />
        </mxCell>
        <mxCell id="QS6g459HwWV62j3J0UH3-17" value="" style="rounded=0;whiteSpace=wrap;html=1;strokeWidth=1;fillColor=#FFFFFF;" vertex="1" parent="1">
          <mxGeometry x="-170" y="364" width="250" height="20" as="geometry" />
        </mxCell>
        <mxCell id="QS6g459HwWV62j3J0UH3-25" value="&lt;font style=&quot;font-size: 10px&quot;&gt;CoVShorts Flow&lt;/font&gt;" style="shape=umlFrame;whiteSpace=wrap;html=1;strokeColor=#000000;strokeWidth=1;fillColor=#E6E6E6;" vertex="1" parent="1">
          <mxGeometry x="-477" y="720" width="1016" height="440" as="geometry" />
        </mxCell>
        <mxCell id="QS6g459HwWV62j3J0UH3-26" value="&lt;b&gt;&lt;font style=&quot;font-size: 14px&quot;&gt;Input&lt;br&gt;Article&lt;/font&gt;&lt;/b&gt;" style="text;html=1;align=center;verticalAlign=middle;resizable=0;points=[];autosize=1;strokeColor=none;" vertex="1" parent="1">
          <mxGeometry x="119" y="337" width="60" height="30" as="geometry" />
        </mxCell>
        <mxCell id="QS6g459HwWV62j3J0UH3-27" value="&lt;span style=&quot;font-size: 14px&quot;&gt;&lt;b&gt;Summary&lt;/b&gt;&lt;/span&gt;" style="text;html=1;align=center;verticalAlign=middle;resizable=0;points=[];autosize=1;strokeColor=none;" vertex="1" parent="1">
          <mxGeometry x="109" y="405" width="80" height="20" as="geometry" />
        </mxCell>
      </root>
    </mxGraphModel>
  </diagram>
</mxfile>
